<mxfile host="app.diagrams.net" modified="2022-06-23T02:58:17.812Z" agent="5.0 (Windows NT 10.0; WOW64) AppleWebKit/537.36 (KHTML, like Gecko) Chrome/102.0.0.0 Safari/537.36" etag="gcrp0YbP9HTegOZlUbh0" version="20.0.3" type="github">
  <diagram id="prtHgNgQTEPvFCAcTncT" name="Page-1">
    <mxGraphModel dx="1422" dy="762" grid="1" gridSize="10" guides="1" tooltips="1" connect="1" arrows="1" fold="1" page="1" pageScale="1" pageWidth="827" pageHeight="1169" math="0" shadow="0">
      <root>
        <mxCell id="0" />
        <mxCell id="1" parent="0" />
        <mxCell id="ZSyUYh4XGvOvGg0P6ygg-1" value="" style="whiteSpace=wrap;html=1;aspect=fixed;" parent="1" vertex="1">
          <mxGeometry x="110" y="500" width="550" height="550" as="geometry" />
        </mxCell>
        <mxCell id="ZSyUYh4XGvOvGg0P6ygg-2" value="" style="rounded=1;whiteSpace=wrap;html=1;" parent="1" vertex="1">
          <mxGeometry x="260" y="940" width="390" height="110" as="geometry" />
        </mxCell>
        <mxCell id="ZSyUYh4XGvOvGg0P6ygg-3" value="" style="whiteSpace=wrap;html=1;aspect=fixed;" parent="1" vertex="1">
          <mxGeometry x="110" y="600" width="50" height="50" as="geometry" />
        </mxCell>
        <mxCell id="ZSyUYh4XGvOvGg0P6ygg-4" value="" style="ellipse;whiteSpace=wrap;html=1;aspect=fixed;" parent="1" vertex="1">
          <mxGeometry x="120" y="610" width="30" height="30" as="geometry" />
        </mxCell>
        <mxCell id="ZSyUYh4XGvOvGg0P6ygg-5" value="" style="whiteSpace=wrap;html=1;aspect=fixed;" parent="1" vertex="1">
          <mxGeometry x="110" y="550" width="50" height="50" as="geometry" />
        </mxCell>
        <mxCell id="ZSyUYh4XGvOvGg0P6ygg-6" value="" style="ellipse;whiteSpace=wrap;html=1;aspect=fixed;" parent="1" vertex="1">
          <mxGeometry x="120" y="560" width="30" height="30" as="geometry" />
        </mxCell>
        <mxCell id="ZSyUYh4XGvOvGg0P6ygg-7" value="" style="whiteSpace=wrap;html=1;aspect=fixed;" parent="1" vertex="1">
          <mxGeometry x="110" y="500" width="50" height="50" as="geometry" />
        </mxCell>
        <mxCell id="ZSyUYh4XGvOvGg0P6ygg-8" value="" style="ellipse;whiteSpace=wrap;html=1;aspect=fixed;" parent="1" vertex="1">
          <mxGeometry x="120" y="510" width="30" height="30" as="geometry" />
        </mxCell>
        <mxCell id="ZSyUYh4XGvOvGg0P6ygg-9" value="" style="whiteSpace=wrap;html=1;aspect=fixed;" parent="1" vertex="1">
          <mxGeometry x="210" y="500" width="210" height="210" as="geometry" />
        </mxCell>
        <mxCell id="ZSyUYh4XGvOvGg0P6ygg-10" value="BUTTON" style="text;html=1;strokeColor=none;fillColor=none;align=center;verticalAlign=middle;whiteSpace=wrap;rounded=0;rotation=90;" parent="1" vertex="1">
          <mxGeometry x="60" y="560" width="60" height="30" as="geometry" />
        </mxCell>
        <mxCell id="ZSyUYh4XGvOvGg0P6ygg-13" value="" style="endArrow=none;html=1;rounded=0;exitX=1;exitY=0.5;exitDx=0;exitDy=0;" parent="1" source="ZSyUYh4XGvOvGg0P6ygg-5" edge="1">
          <mxGeometry width="50" height="50" relative="1" as="geometry">
            <mxPoint x="370" y="850" as="sourcePoint" />
            <mxPoint x="190" y="575" as="targetPoint" />
          </mxGeometry>
        </mxCell>
        <mxCell id="ZSyUYh4XGvOvGg0P6ygg-14" value="" style="endArrow=none;html=1;rounded=0;exitX=1;exitY=0.5;exitDx=0;exitDy=0;" parent="1" source="ZSyUYh4XGvOvGg0P6ygg-3" edge="1">
          <mxGeometry width="50" height="50" relative="1" as="geometry">
            <mxPoint x="370" y="850" as="sourcePoint" />
            <mxPoint x="190" y="550" as="targetPoint" />
            <Array as="points">
              <mxPoint x="190" y="625" />
            </Array>
          </mxGeometry>
        </mxCell>
        <mxCell id="ZSyUYh4XGvOvGg0P6ygg-15" value="" style="rounded=1;whiteSpace=wrap;html=1;" parent="1" vertex="1">
          <mxGeometry x="505" y="630" width="145" height="75" as="geometry" />
        </mxCell>
        <mxCell id="ZSyUYh4XGvOvGg0P6ygg-17" value="" style="endArrow=none;html=1;rounded=0;exitX=1;exitY=0.5;exitDx=0;exitDy=0;entryX=0;entryY=0.362;entryDx=0;entryDy=0;entryPerimeter=0;" parent="1" source="ZSyUYh4XGvOvGg0P6ygg-7" target="ZSyUYh4XGvOvGg0P6ygg-9" edge="1">
          <mxGeometry width="50" height="50" relative="1" as="geometry">
            <mxPoint x="370" y="800" as="sourcePoint" />
            <mxPoint x="420" y="750" as="targetPoint" />
            <Array as="points">
              <mxPoint x="190" y="525" />
              <mxPoint x="190" y="576" />
            </Array>
          </mxGeometry>
        </mxCell>
        <mxCell id="ZSyUYh4XGvOvGg0P6ygg-20" value="" style="endArrow=none;html=1;rounded=0;exitX=0.5;exitY=0;exitDx=0;exitDy=0;entryX=1;entryY=0.5;entryDx=0;entryDy=0;" parent="1" source="ZSyUYh4XGvOvGg0P6ygg-2" target="ZSyUYh4XGvOvGg0P6ygg-9" edge="1">
          <mxGeometry width="50" height="50" relative="1" as="geometry">
            <mxPoint x="370" y="800" as="sourcePoint" />
            <mxPoint x="470" y="600" as="targetPoint" />
            <Array as="points">
              <mxPoint x="450" y="605" />
            </Array>
          </mxGeometry>
        </mxCell>
        <mxCell id="ZSyUYh4XGvOvGg0P6ygg-21" value="ESP8266" style="text;html=1;strokeColor=none;fillColor=none;align=center;verticalAlign=middle;whiteSpace=wrap;rounded=0;" parent="1" vertex="1">
          <mxGeometry x="285" y="580" width="60" height="30" as="geometry" />
        </mxCell>
        <mxCell id="ZSyUYh4XGvOvGg0P6ygg-23" value="TEMPERATURE &amp;amp; HUMIDITY SENSOR" style="text;html=1;strokeColor=none;fillColor=none;align=center;verticalAlign=middle;whiteSpace=wrap;rounded=0;" parent="1" vertex="1">
          <mxGeometry x="547.5" y="652.5" width="60" height="30" as="geometry" />
        </mxCell>
        <mxCell id="ZSyUYh4XGvOvGg0P6ygg-24" value="LCD" style="text;html=1;strokeColor=none;fillColor=none;align=center;verticalAlign=middle;whiteSpace=wrap;rounded=0;" parent="1" vertex="1">
          <mxGeometry x="425" y="980" width="60" height="30" as="geometry" />
        </mxCell>
        <mxCell id="ZSyUYh4XGvOvGg0P6ygg-25" value="" style="rounded=0;whiteSpace=wrap;html=1;" parent="1" vertex="1">
          <mxGeometry x="110" y="160" width="550" height="260" as="geometry" />
        </mxCell>
        <mxCell id="ZSyUYh4XGvOvGg0P6ygg-26" value="" style="rounded=1;whiteSpace=wrap;html=1;" parent="1" vertex="1">
          <mxGeometry x="110" y="160" width="260" height="100" as="geometry" />
        </mxCell>
        <mxCell id="ZSyUYh4XGvOvGg0P6ygg-27" value="PUMP" style="text;html=1;strokeColor=none;fillColor=none;align=center;verticalAlign=middle;whiteSpace=wrap;rounded=0;" parent="1" vertex="1">
          <mxGeometry x="210" y="195" width="60" height="30" as="geometry" />
        </mxCell>
        <mxCell id="ZSyUYh4XGvOvGg0P6ygg-28" value="" style="rounded=1;whiteSpace=wrap;html=1;" parent="1" vertex="1">
          <mxGeometry x="110" y="340" width="150" height="80" as="geometry" />
        </mxCell>
        <mxCell id="ZSyUYh4XGvOvGg0P6ygg-29" value="ULTRASONIC SENSOR" style="text;html=1;strokeColor=none;fillColor=none;align=center;verticalAlign=middle;whiteSpace=wrap;rounded=0;" parent="1" vertex="1">
          <mxGeometry x="155" y="365" width="60" height="30" as="geometry" />
        </mxCell>
        <mxCell id="ZSyUYh4XGvOvGg0P6ygg-30" value="" style="endArrow=none;html=1;rounded=0;exitX=1;exitY=0.5;exitDx=0;exitDy=0;entryX=0.5;entryY=1;entryDx=0;entryDy=0;" parent="1" source="ZSyUYh4XGvOvGg0P6ygg-26" edge="1">
          <mxGeometry width="50" height="50" relative="1" as="geometry">
            <mxPoint x="370" y="400" as="sourcePoint" />
            <mxPoint x="575" y="500" as="targetPoint" />
            <Array as="points">
              <mxPoint x="570" y="210" />
            </Array>
          </mxGeometry>
        </mxCell>
        <mxCell id="ZSyUYh4XGvOvGg0P6ygg-32" value="" style="endArrow=none;html=1;rounded=0;exitX=1;exitY=0.5;exitDx=0;exitDy=0;entryX=1;entryY=0.5;entryDx=0;entryDy=0;" parent="1" source="ZSyUYh4XGvOvGg0P6ygg-28" target="ZSyUYh4XGvOvGg0P6ygg-9" edge="1">
          <mxGeometry width="50" height="50" relative="1" as="geometry">
            <mxPoint x="370" y="400" as="sourcePoint" />
            <mxPoint x="450" y="610" as="targetPoint" />
            <Array as="points">
              <mxPoint x="450" y="380" />
              <mxPoint x="450" y="605" />
            </Array>
          </mxGeometry>
        </mxCell>
        <mxCell id="meHxXMJEBjm3KYscXVO--2" value="" style="rounded=1;whiteSpace=wrap;html=1;" vertex="1" parent="1">
          <mxGeometry x="505" y="500" width="145" height="75" as="geometry" />
        </mxCell>
        <mxCell id="meHxXMJEBjm3KYscXVO--3" value="RELAY" style="text;html=1;strokeColor=none;fillColor=none;align=center;verticalAlign=middle;whiteSpace=wrap;rounded=0;" vertex="1" parent="1">
          <mxGeometry x="547.5" y="522.5" width="60" height="30" as="geometry" />
        </mxCell>
        <mxCell id="meHxXMJEBjm3KYscXVO--4" value="" style="endArrow=none;html=1;rounded=0;entryX=1;entryY=0.5;entryDx=0;entryDy=0;exitX=0.5;exitY=0;exitDx=0;exitDy=0;" edge="1" parent="1" source="ZSyUYh4XGvOvGg0P6ygg-15" target="ZSyUYh4XGvOvGg0P6ygg-9">
          <mxGeometry width="50" height="50" relative="1" as="geometry">
            <mxPoint x="390" y="700" as="sourcePoint" />
            <mxPoint x="440" y="650" as="targetPoint" />
            <Array as="points">
              <mxPoint x="578" y="605" />
            </Array>
          </mxGeometry>
        </mxCell>
        <mxCell id="meHxXMJEBjm3KYscXVO--5" value="" style="endArrow=none;html=1;rounded=0;entryX=1;entryY=0.5;entryDx=0;entryDy=0;exitX=0.5;exitY=1;exitDx=0;exitDy=0;" edge="1" parent="1" source="meHxXMJEBjm3KYscXVO--2" target="ZSyUYh4XGvOvGg0P6ygg-9">
          <mxGeometry width="50" height="50" relative="1" as="geometry">
            <mxPoint x="390" y="700" as="sourcePoint" />
            <mxPoint x="440" y="650" as="targetPoint" />
            <Array as="points">
              <mxPoint x="578" y="605" />
            </Array>
          </mxGeometry>
        </mxCell>
      </root>
    </mxGraphModel>
  </diagram>
</mxfile>
